<svg width="1200" height="720" viewBox="0 0 1200 720" fill="none" xmlns="http://www.w3.org/2000/svg">
  <rect width="1200" height="720" rx="36" fill="#08111F"/>
  <rect x="70" y="70" width="1060" height="580" rx="32" fill="#0F1C31" stroke="#1F365C" stroke-width="2"/>
  <circle cx="240" cy="184" r="84" fill="#112948"/>
  <circle cx="240" cy="184" r="42" fill="#4CC9F0"/>
  <rect x="438" y="124" width="468" height="120" rx="24" fill="#10213A"/>
  <rect x="438" y="286" width="296" height="248" rx="24" fill="#10213A"/>
  <rect x="772" y="286" width="134" height="248" rx="24" fill="#10213A"/>
  <path d="M240 268V376H438" stroke="#4CC9F0" stroke-width="10" stroke-linecap="round"/>
  <path d="M586 244V286" stroke="#55EFC4" stroke-width="10" stroke-linecap="round"/>
  <path d="M838 244V286" stroke="#55EFC4" stroke-width="10" stroke-linecap="round"/>
  <rect x="492" y="158" width="118" height="52" rx="12" fill="#4CC9F0"/>
  <rect x="634" y="158" width="118" height="52" rx="12" fill="#1D3557"/>
  <rect x="776" y="158" width="82" height="52" rx="12" fill="#1D3557"/>
  <circle cx="840" cy="410" r="42" fill="#4CC9F0"/>
  <circle cx="840" cy="410" r="20" fill="#08111F"/>
  <circle cx="586" cy="410" r="82" fill="#112948"/>
  <path d="M586 362C570 362 556 376 556 392V422H616V392C616 376 602 362 586 362Z" fill="#55EFC4"/>
  <rect x="538" y="438" width="96" height="24" rx="12" fill="#4CC9F0"/>
  <path d="M208 446C226 422 255 406 288 406C321 406 350 422 368 446" stroke="#55EFC4" stroke-width="12" stroke-linecap="round"/>
  <path d="M183 406C208 370 250 346 298 346C346 346 388 370 413 406" stroke="#4CC9F0" stroke-width="12" stroke-linecap="round"/>
  <path d="M160 368C194 319 250 286 313 286C376 286 432 319 466 368" stroke="#1D3557" stroke-width="12" stroke-linecap="round"/>
  <text x="108" y="598" fill="#E5EEFC" font-family="Segoe UI, Arial, sans-serif" font-size="44" font-weight="700">
    Systeme IoT et supervision de capteurs
  </text>
  <text x="108" y="644" fill="#9FB0CB" font-family="Segoe UI, Arial, sans-serif" font-size="26">
    ESP32, detection d'obstacles, releve temperature/humidite et scan Wi-Fi
  </text>
</svg>
